<svg width="80" height="80" viewBox="0 0 80 80" fill="none" xmlns="http://www.w3.org/2000/svg">
<ellipse cx="5.92593" cy="7.11111" rx="5.92593" ry="7.11111" transform="matrix(0.707107 -0.707107 -0.707107 -0.707107 71.2891 53.5)" fill="#3F7091"/>
<path d="M23.4344 44.0881C25.1726 41.0775 29.1169 40.2028 31.9647 42.1962L35.4228 44.6171C37.9565 46.3909 38.6994 49.8153 37.1294 52.4801L26.298 70.8646L26.2735 70.854C25.5397 71.886 24.4121 72.6371 23.0662 72.8629L11.9762 74.7239C8.74749 75.2654 5.6908 73.0859 5.15071 69.857L4.68027 67.0396C4.14043 63.8116 6.31945 60.7571 9.54742 60.2173L14.6102 59.3698L23.4344 44.0881Z" fill="#3F7091"/>
<path d="M59.3286 54.8125L44.2006 60.0053L49.4914 75.4188C50.554 78.5143 53.9248 80.1623 57.0203 79.0998L60.9384 77.7548C64.034 76.6923 65.682 73.3215 64.6194 70.226L59.3286 54.8125Z" fill="#3F7091"/>
<path d="M14.822 32.5147C14.822 35.6917 15.4478 38.8377 16.6636 41.7729C17.8793 44.7081 19.6614 47.3751 21.9078 49.6215C24.1543 51.868 26.8213 53.6501 29.7564 54.8659C32.6916 56.0816 35.8375 56.7074 39.0145 56.7074C42.1915 56.7074 45.3373 56.0816 48.2725 54.8658C51.2077 53.6501 53.8746 51.868 56.1211 49.6215C58.3676 47.375 60.1496 44.7081 61.3654 41.7729C62.5812 38.8377 63.2069 35.6917 63.2069 32.5147C63.2069 29.3377 62.5812 26.1917 61.3654 23.2565C60.1496 20.3213 58.3676 17.6544 56.1211 15.4079C53.8746 13.1614 51.2076 11.3793 48.2725 10.1636C45.3373 8.94776 42.1914 8.322 39.0145 8.32201C35.8375 8.32201 32.6916 8.94777 29.7564 10.1636C26.8213 11.3794 24.1543 13.1614 21.9078 15.4079C19.6613 17.6544 17.8793 20.3214 16.6636 23.2566C15.4478 26.1918 14.822 29.3377 14.822 32.5147L14.822 32.5147Z" stroke="#EBF2FF" stroke-width="16.1284"/>
<path d="M18.0279 38.1382C19.0138 41.8175 20.9499 45.1729 23.6419 47.8678C26.3339 50.5627 29.6872 52.5022 33.3655 53.4919C37.0437 54.4817 40.9176 54.4867 44.5984 53.5066C48.2793 52.5266 51.6377 50.5958 54.3368 47.9079" stroke="#4C7D9F" stroke-width="21.07" stroke-linecap="round"/>
<path d="M54.369 47.8758C57.0624 45.1823 59.0002 41.8279 59.988 38.1491C60.9758 34.4703 60.9789 30.5964 59.9969 26.916C59.0148 23.2356 57.0823 19.8782 54.3931 17.1805C51.7039 14.4828 48.3526 12.5397 44.6754 11.5462" stroke="#FFC300" stroke-width="21.07" stroke-linecap="round"/>
<path d="M44.6315 11.5343C40.9522 10.5485 37.0783 10.5475 33.3985 11.5314C29.7187 12.5154 26.3623 14.4497 23.666 17.1403C20.9698 19.8309 19.0284 23.1833 18.0368 26.8611C17.0451 30.5389 17.038 34.4128 18.0162 38.0942" stroke="#7BA9F3" stroke-width="21.07" stroke-linecap="round"/>
<path d="M18.0279 38.1382C19.2152 42.5691 21.7747 46.5104 25.3396 49.3972" stroke="#4C7D9F" stroke-width="21.07" stroke-linecap="round"/>
<ellipse cx="9.67801" cy="44.9261" rx="5.92593" ry="7.11111" transform="rotate(30 9.67801 44.9261)" fill="#3F7091"/>
<path d="M53 25.4573C53 24.1002 54.0074 23 55.25 23V23C56.4926 23 57.5 24.1002 57.5 25.4573V27.4232C57.5 28.7803 56.4926 29.8805 55.25 29.8805V29.8805C54.0074 29.8805 53 28.7803 53 27.4232V25.4573Z" fill="#21272A"/>
<path d="M62.9146 25.4573C62.9146 24.1002 63.9219 23 65.1646 23V23C66.4072 23 67.4146 24.1002 67.4146 25.4573V27.4232C67.4146 28.7803 66.4072 29.8804 65.1646 29.8804V29.8804C63.9219 29.8804 62.9146 28.7803 62.9146 27.4232V25.4573Z" fill="#21272A"/>
</svg>
