<svg width="68" height="68" viewBox="0 0 68 68" fill="none" xmlns="http://www.w3.org/2000/svg">
<path d="M36.4791 19.7748L31.1791 14.4748C30.8309 14.1261 30.4174 13.8496 29.9623 13.6608C29.5072 13.4721 29.0193 13.3749 28.5266 13.3748H15.0791C13.5873 13.3748 12.1565 13.9674 11.1016 15.0223C10.0467 16.0772 9.4541 17.5079 9.4541 18.9998V48.9998C9.4541 50.4916 10.0467 51.9223 11.1016 52.9772C12.1565 54.0321 13.5873 54.6248 15.0791 54.6248H52.5791C54.0709 54.6248 55.5017 54.0321 56.5566 52.9772C57.6115 51.9223 58.2041 50.4916 58.2041 48.9998V26.4998C58.2041 25.0079 57.6115 23.5772 56.5566 22.5223C55.5017 21.4674 54.0709 20.8748 52.5791 20.8748H39.1316C38.1374 20.8739 37.1817 20.4782 36.4791 19.7748Z" fill="#FEF3C7"/>
<path d="M9.625 35.8748V33.9998C9.625 32.5079 10.2176 31.0772 11.2725 30.0223C12.3274 28.9674 13.7582 28.3748 15.25 28.3748H52.75C54.2418 28.3748 55.6726 28.9674 56.7275 30.0223C57.7824 31.0772 58.375 32.5079 58.375 33.9998V35.8748M36.65 19.7748L31.35 14.4748C31.0018 14.1261 30.5883 13.8496 30.1332 13.6608C29.6781 13.4721 29.1902 13.3749 28.6975 13.3748H15.25C13.7582 13.3748 12.3274 13.9674 11.2725 15.0223C10.2176 16.0772 9.625 17.5079 9.625 18.9998V48.9998C9.625 50.4916 10.2176 51.9223 11.2725 52.9772C12.3274 54.0321 13.7582 54.6248 15.25 54.6248H52.75C54.2418 54.6248 55.6726 54.0321 56.7275 52.9772C57.7824 51.9223 58.375 50.4916 58.375 48.9998V26.4998C58.375 25.0079 57.7824 23.5772 56.7275 22.5223C55.6726 21.4674 54.2418 20.8748 52.75 20.8748H39.3025C38.3083 20.8739 37.3526 20.4782 36.65 19.7748Z" stroke="#D97708" stroke-width="2" stroke-linecap="round" stroke-linejoin="round"/>
</svg>
