<svg width="60" height="60" viewBox="0 0 60 60" fill="none" xmlns="http://www.w3.org/2000/svg">
<path d="M32.4796 15.7748L27.1796 10.4748C26.8314 10.1261 26.4179 9.84955 25.9628 9.66081C25.5077 9.47206 25.0198 9.37486 24.5271 9.37476H11.0796C9.58775 9.37476 8.15701 9.96739 7.10211 11.0223C6.04722 12.0772 5.45459 13.5079 5.45459 14.9998V44.9998C5.45459 46.4916 6.04722 47.9223 7.10211 48.9772C8.15701 50.0321 9.58775 50.6248 11.0796 50.6248H48.5796C50.0714 50.6248 51.5022 50.0321 52.5571 48.9772C53.612 47.9223 54.2046 46.4916 54.2046 44.9998V22.4998C54.2046 21.0079 53.612 19.5772 52.5571 18.5223C51.5022 17.4674 50.0714 16.8748 48.5796 16.8748H35.1321C34.1379 16.8739 33.1822 16.4782 32.4796 15.7748Z" fill="#FAE8A0"/>
<path d="M5.625 31.8748V29.9998C5.625 28.5079 6.21763 27.0772 7.27252 26.0223C8.32742 24.9674 9.75816 24.3748 11.25 24.3748H48.75C50.2418 24.3748 51.6726 24.9674 52.7275 26.0223C53.7824 27.0772 54.375 28.5079 54.375 29.9998V31.8748M32.65 15.7748L27.35 10.4748C27.0018 10.1261 26.5883 9.84955 26.1332 9.66081C25.6781 9.47206 25.1902 9.37486 24.6975 9.37476H11.25C9.75816 9.37476 8.32742 9.96739 7.27252 11.0223C6.21763 12.0772 5.625 13.5079 5.625 14.9998V44.9998C5.625 46.4916 6.21763 47.9223 7.27252 48.9772C8.32742 50.0321 9.75816 50.6248 11.25 50.6248H48.75C50.2418 50.6248 51.6726 50.0321 52.7275 48.9772C53.7824 47.9223 54.375 46.4916 54.375 44.9998V22.4998C54.375 21.0079 53.7824 19.5772 52.7275 18.5223C51.6726 17.4674 50.2418 16.8748 48.75 16.8748H35.3025C34.3083 16.8739 33.3526 16.4782 32.65 15.7748Z" stroke="white" stroke-width="2" stroke-linecap="round" stroke-linejoin="round"/>
</svg>
