<svg width="60" height="60" viewBox="0 0 60 60" fill="none" xmlns="http://www.w3.org/2000/svg">
<path d="M32.4791 15.7748L27.1791 10.4748C26.8309 10.1261 26.4174 9.84955 25.9623 9.66081C25.5072 9.47206 25.0193 9.37486 24.5266 9.37476H11.0791C9.58726 9.37476 8.15652 9.96739 7.10163 11.0223C6.04673 12.0772 5.4541 13.5079 5.4541 14.9998V44.9998C5.4541 46.4916 6.04673 47.9223 7.10163 48.9772C8.15652 50.0321 9.58726 50.6248 11.0791 50.6248H48.5791C50.0709 50.6248 51.5017 50.0321 52.5566 48.9772C53.6115 47.9223 54.2041 46.4916 54.2041 44.9998V22.4998C54.2041 21.0079 53.6115 19.5772 52.5566 18.5223C51.5017 17.4674 50.0709 16.8748 48.5791 16.8748H35.1316C34.1374 16.8739 33.1817 16.4782 32.4791 15.7748Z" fill="#FEF3C7"/>
<path d="M5.625 31.8748V29.9998C5.625 28.5079 6.21763 27.0772 7.27252 26.0223C8.32742 24.9674 9.75816 24.3748 11.25 24.3748H48.75C50.2418 24.3748 51.6726 24.9674 52.7275 26.0223C53.7824 27.0772 54.375 28.5079 54.375 29.9998V31.8748M32.65 15.7748L27.35 10.4748C27.0018 10.1261 26.5883 9.84955 26.1332 9.66081C25.6781 9.47206 25.1902 9.37486 24.6975 9.37476H11.25C9.75816 9.37476 8.32742 9.96739 7.27252 11.0223C6.21763 12.0772 5.625 13.5079 5.625 14.9998V44.9998C5.625 46.4916 6.21763 47.9223 7.27252 48.9772C8.32742 50.0321 9.75816 50.6248 11.25 50.6248H48.75C50.2418 50.6248 51.6726 50.0321 52.7275 48.9772C53.7824 47.9223 54.375 46.4916 54.375 44.9998V22.4998C54.375 21.0079 53.7824 19.5772 52.7275 18.5223C51.6726 17.4674 50.2418 16.8748 48.75 16.8748H35.3025C34.3083 16.8739 33.3526 16.4782 32.65 15.7748Z" stroke="#D97708" stroke-width="1.5" stroke-linecap="round" stroke-linejoin="round"/>
</svg>
