<svg width="60" height="60" viewBox="0 0 60 60" fill="none" xmlns="http://www.w3.org/2000/svg">
<rect width="60" height="60" rx="6.42857" fill="#F7EAD2"/>
<path d="M12.1251 31.3748V29.9998C12.1251 28.9058 12.5597 27.8566 13.3333 27.083C14.1069 26.3094 15.1561 25.8748 16.2501 25.8748H43.7501C44.8441 25.8748 45.8934 26.3094 46.6669 27.083C47.4405 27.8566 47.8751 28.9058 47.8751 29.9998V31.3748M31.9435 19.5682L28.0568 15.6815C27.8015 15.4258 27.4982 15.223 27.1645 15.0846C26.8307 14.9462 26.4729 14.8749 26.1116 14.8748H16.2501C15.1561 14.8748 14.1069 15.3094 13.3333 16.083C12.5597 16.8566 12.1251 17.9058 12.1251 18.9998V40.9998C12.1251 42.0938 12.5597 43.143 13.3333 43.9166C14.1069 44.6902 15.1561 45.1248 16.2501 45.1248H43.7501C44.8441 45.1248 45.8934 44.6902 46.6669 43.9166C47.4405 43.143 47.8751 42.0938 47.8751 40.9998V24.4998C47.8751 23.4058 47.4405 22.3566 46.6669 21.583C45.8934 20.8094 44.8441 20.3748 43.7501 20.3748H33.8886C33.1595 20.3742 32.4587 20.084 31.9435 19.5682Z" stroke="#DF8A0C" stroke-width="2.75" stroke-linecap="round" stroke-linejoin="round"/>
</svg>
