<?xml version="1.0" standalone="no"?>
<!DOCTYPE svg PUBLIC "-//W3C//DTD SVG 20010904//EN"
 "http://www.w3.org/TR/2001/REC-SVG-20010904/DTD/svg10.dtd">
<svg version="1.0" xmlns="http://www.w3.org/2000/svg"
 width="512.000000pt" height="512.000000pt" viewBox="0 0 512.000000 512.000000"
 preserveAspectRatio="xMidYMid meet">

<g transform="translate(0.000000,512.000000) scale(0.100000,-0.100000)"
fill="#d45c4c" stroke="none">
<path d="M2384 5110 c-1035 -74 -1922 -762 -2248 -1743 -146 -437 -170 -915
-70 -1367 223 -1003 1048 -1787 2064 -1959 819 -139 1647 125 2236 713 447
447 701 1011 743 1648 77 1150 -643 2217 -1742 2582 -310 103 -666 149 -983
126z m-707 -1531 c15 -5 220 -202 455 -437 l428 -427 432 432 c372 371 438
432 469 438 74 14 138 -50 124 -124 -6 -31 -67 -97 -438 -468 l-431 -433 431
-432 c371 -372 432 -438 438 -469 14 -74 -50 -138 -124 -124 -31 6 -97 67
-468 438 l-433 431 -432 -431 c-372 -371 -438 -432 -469 -438 -74 -14 -138 50
-124 124 6 31 67 97 438 469 l431 432 -431 433 c-371 371 -432 437 -438 468
-8 45 14 92 53 113 33 18 52 19 89 5z"/>
</g>
</svg>
