<?xml version="1.0" encoding="UTF-8"?>
<!-- Generator: Adobe Illustrator 25.0.0, SVG Export Plug-In . SVG Version: 6.00 Build 0)  -->
<svg xmlns="http://www.w3.org/2000/svg" xmlns:xlink="http://www.w3.org/1999/xlink" version="1.1" id="Capa_1" x="0px" y="0px" viewBox="0 0 512 512" style="enable-background:new 0 0 512 512;" xml:space="preserve" width="512" height="512">
<g>
	<path fill="#3498DB" d="M256,512c141.385,0,256-114.615,256-256S397.385,0,256,0S0,114.615,0,256C0.153,397.322,114.678,511.847,256,512z    M234.667,128c0-11.782,9.551-21.333,21.333-21.333c11.782,0,21.333,9.551,21.333,21.333v170.667   c0,11.782-9.551,21.333-21.333,21.333c-11.782,0-21.333-9.551-21.333-21.333V128z M256,384c11.782,0,21.333,9.551,21.333,21.333   s-9.551,21.333-21.333,21.333c-11.782,0-21.333-9.551-21.333-21.333S244.218,384,256,384z"/>
</g>
</svg>
