<svg width="21" height="20" viewBox="0 0 21 20" fill="none" xmlns="http://www.w3.org/2000/svg">
<g clip-path="url(#clip0_1072_19719)">
<path d="M17.1666 10.4167V5.66675C17.1666 4.26662 17.1666 3.56655 16.8941 3.03177C16.6544 2.56137 16.272 2.17892 15.8016 1.93923C15.2668 1.66675 14.5667 1.66675 13.1666 1.66675H7.83325C6.43312 1.66675 5.73305 1.66675 5.19828 1.93923C4.72787 2.17892 4.34542 2.56137 4.10574 3.03177C3.83325 3.56655 3.83325 4.26662 3.83325 5.66675V14.3334C3.83325 15.7335 3.83325 16.4336 4.10574 16.9684C4.34542 17.4388 4.72787 17.8212 5.19828 18.0609C5.73305 18.3334 6.43312 18.3334 7.83325 18.3334H10.4999M12.1666 9.16675H7.16659M8.83325 12.5001H7.16659M13.8333 5.83341H7.16659M12.5833 15.8334L14.2499 17.5001L17.9999 13.7501" stroke="#3F7092" stroke-width="1.66667" stroke-linecap="round" stroke-linejoin="round"/>
</g>
<defs>
<clipPath id="clip0_1072_19719">
<rect width="20" height="20" fill="white" transform="translate(0.5 0.00012207)"/>
</clipPath>
</defs>
</svg>
