<svg xmlns="http://www.w3.org/2000/svg" fill="none" viewBox="20 20 301.44 70.62">
<path d="M310.351 64.24V90H302.007V64.24H310.351ZM317.799 72.976C317.351 72.528 316.866 72.1733 316.343 71.912C315.858 71.6507 315.242 71.52 314.495 71.52C313.674 71.52 312.946 71.744 312.311 72.192C311.677 72.64 311.191 73.2933 310.855 74.152C310.519 75.0107 310.351 76.056 310.351 77.288L308.335 74.32C308.335 72.2667 308.727 70.4373 309.511 68.832C310.333 67.2267 311.397 65.9573 312.703 65.024C314.01 64.0907 315.373 63.624 316.791 63.624C317.725 63.624 318.621 63.8107 319.479 64.184C320.338 64.5573 320.991 65.08 321.439 65.752L317.799 72.976Z" fill="#0F2E5F"/>
<path d="M266.344 77.12C266.344 74.3947 266.979 72.024 268.248 70.008C269.518 67.992 271.272 66.424 273.512 65.304C275.752 64.184 278.272 63.624 281.072 63.624C283.872 63.624 286.374 64.184 288.576 65.304C290.816 66.424 292.571 67.992 293.84 70.008C295.147 72.024 295.8 74.3947 295.8 77.12C295.8 79.808 295.147 82.16 293.84 84.176C292.571 86.192 290.816 87.76 288.576 88.88C286.374 90 283.872 90.56 281.072 90.56C278.272 90.56 275.752 90 273.512 88.88C271.272 87.76 269.518 86.192 268.248 84.176C266.979 82.16 266.344 79.808 266.344 77.12ZM275.024 77.12C275.024 78.464 275.304 79.6213 275.864 80.592C276.424 81.5253 277.152 82.2533 278.048 82.776C278.944 83.2987 279.952 83.56 281.072 83.56C282.155 83.56 283.144 83.2987 284.04 82.776C284.974 82.2533 285.702 81.5253 286.224 80.592C286.784 79.6213 287.064 78.464 287.064 77.12C287.064 75.776 286.784 74.6187 286.224 73.648C285.702 72.6773 284.974 71.9307 284.04 71.408C283.144 70.8853 282.155 70.624 281.072 70.624C279.952 70.624 278.944 70.8853 278.048 71.408C277.152 71.9307 276.424 72.6773 275.864 73.648C275.304 74.6187 275.024 75.776 275.024 77.12Z" fill="#0F2E5F"/>
<path d="M245.884 64.24H263.132V71.24H245.884V64.24ZM250.42 55.28H258.54V90H250.42V55.28Z" fill="#0F2E5F"/>
<path d="M224.425 79.92C224.425 81.4133 224.705 82.5893 225.265 83.448C225.825 84.2693 226.796 84.68 228.177 84.68C229.11 84.68 229.894 84.4933 230.529 84.12C231.201 83.7467 231.724 83.2053 232.097 82.496C232.47 81.7867 232.657 80.928 232.657 79.92V64.24H241.113V90H232.657V86.136C231.873 87.5173 230.846 88.6187 229.577 89.44C228.308 90.224 226.721 90.616 224.817 90.616C221.606 90.616 219.254 89.7573 217.761 88.04C216.305 86.2853 215.577 83.8773 215.577 80.816V64.24H224.425V79.92Z" fill="#0F2E5F"/>
<path d="M53 35.855C50.3192 36.1351 47.719 36.9752 45.3721 38.3306C42.4465 40.0204 40.0171 42.4505 38.3281 45.3765C36.6391 48.3026 35.7499 51.622 35.75 55.0005C35.7501 57.4795 36.2301 59.9264 37.1523 62.2095L23.4385 70.1265C21.1807 65.4157 20.0003 60.2481 20 55.0015C19.9997 48.8585 21.6166 42.8238 24.6875 37.5035C27.7585 32.1831 32.1755 27.7644 37.4951 24.6919C42.2383 21.9525 47.5499 20.3691 53 20.0572V35.855Z" fill="#F3B942"/>
<path d="M58 20.1298C63.0962 20.5682 68.0471 22.119 72.498 24.6884C77.8183 27.7596 82.2365 32.1772 85.3086 37.497C88.3807 42.8166 89.999 48.851 90 54.994C90.0009 60.4263 88.7359 65.7739 86.3203 70.6181L72.6328 62.7157C73.6949 60.2884 74.2504 57.6618 74.25 54.997C74.2495 51.6182 73.3596 48.2988 71.6699 45.3729C69.9803 42.4472 67.55 40.0182 64.624 38.329C62.5711 37.1439 60.3247 36.353 58 35.9862V20.1298Z" fill="#4C7D9F"/>
<path d="M39.6124 66.5635C41.166 68.6309 43.1244 70.3722 45.378 71.6728C48.3042 73.3616 51.6234 74.2503 55.002 74.25C58.3807 74.2496 61.7001 73.3604 64.626 71.6709C66.7183 70.4628 68.5543 68.8739 70.0499 66.998L83.7755 74.9228C80.8379 79.1657 76.9915 82.7171 72.502 85.3096C67.1821 88.3814 61.147 89.9993 55.004 90C48.8608 90.0006 42.8256 88.3842 37.5049 85.3135C32.8539 82.6291 28.8921 78.9161 25.9161 74.4707L39.6124 66.5635Z" fill="#0F2E5F"/>
<path d="M110 90H92L118.5 25.5L128 48L110 90Z" fill="#F3B942"/>
<path d="M151 90.5H169L139.5 20.5H121L151 90.5Z" fill="#4C7D9F"/>
<path d="M188 20V90H205V35H224V20H188Z" fill="#F3B942"/>
<rect width="15" height="15" transform="matrix(-1 0 0 1 184 20)" fill="#4C7D9F"/>
</svg>