<svg width="21" height="20" viewBox="0 0 21 20" fill="none" xmlns="http://www.w3.org/2000/svg">
<g clip-path="url(#clip0_1072_19711)">
<path d="M4.25008 18.3334V14.1667M4.25008 5.83341V1.66675M2.16675 3.75008H6.33341M2.16675 16.2501H6.33341M11.3334 2.50008L9.88827 6.25747C9.65326 6.86849 9.53575 7.174 9.35302 7.43099C9.19107 7.65875 8.99208 7.85774 8.76432 8.01969C8.50734 8.20242 8.20182 8.31992 7.5908 8.55493L3.83342 10.0001L7.5908 11.4452C8.20183 11.6802 8.50734 11.7977 8.76432 11.9805C8.99208 12.1424 9.19107 12.3414 9.35302 12.5692C9.53575 12.8262 9.65326 13.1317 9.88827 13.7427L11.3334 17.5001L12.7786 13.7427C13.0136 13.1317 13.1311 12.8262 13.3138 12.5692C13.4758 12.3414 13.6748 12.1424 13.9025 11.9805C14.1595 11.7977 14.465 11.6802 15.076 11.4452L18.8334 10.0001L15.076 8.55493C14.465 8.31992 14.1595 8.20242 13.9025 8.01969C13.6747 7.85774 13.4758 7.65875 13.3138 7.43099C13.1311 7.174 13.0136 6.86849 12.7786 6.25747L11.3334 2.50008Z" stroke="#3F7092" stroke-width="1.66667" stroke-linecap="round" stroke-linejoin="round"/>
</g>
<defs>
<clipPath id="clip0_1072_19711">
<rect width="20" height="20" fill="white" transform="translate(0.5 0.00012207)"/>
</clipPath>
</defs>
</svg>
