<svg xmlns="http://www.w3.org/2000/svg" fill="none" viewBox="1.75 2.5 16.5 15">
<path d="M4 5.50012V4.75012C4 3.92169 4.67157 3.25012 5.5 3.25012H16C16.8284 3.25012 17.5 3.92169 17.5 4.75012V13.7501C17.5 14.5785 16.8284 15.2501 16 15.2501H12.25" stroke="#3F7092" stroke-width="1.5" stroke-linecap="round"/>
<path d="M8.52695 16.6744L12.1544 10.3915" stroke="#3F7092" stroke-width="1.5" stroke-linecap="round"/>
<path d="M8.5 16.7501V16.1148C8.5 15.2253 8.5 14.7806 8.32483 14.4408C8.17075 14.142 7.92489 13.899 7.62248 13.7468C7.2787 13.5737 6.82866 13.5737 5.92857 13.5737H5.07143C4.17134 13.5737 3.7213 13.5737 3.37752 13.7468C3.07511 13.899 2.82925 14.142 2.67517 14.4408C2.5 14.7806 2.5 15.2253 2.5 16.1148V16.7501M7.375 9.60306C7.375 10.6264 6.53553 11.456 5.5 11.456C4.46447 11.456 3.625 10.6264 3.625 9.60306C3.625 8.57971 4.46447 7.75012 5.5 7.75012C6.53553 7.75012 7.375 8.57971 7.375 9.60306Z" stroke="#3F7092" stroke-width="1.5" stroke-linecap="round" stroke-linejoin="round"/>
</svg>