<svg width="36" height="36" viewBox="0 0 36 36" fill="none" xmlns="http://www.w3.org/2000/svg">
<rect width="36" height="36" rx="18" fill="#F2F4F8"/>
<path d="M15.4005 18.0525C15.4927 18.0132 15.5919 17.9927 15.6921 17.9923C15.7924 17.992 15.8917 18.0117 15.9842 18.0504C16.0767 18.0891 16.1605 18.1459 16.2306 18.2175C16.3008 18.2891 16.3558 18.3741 16.3926 18.4673C16.4294 18.5606 16.447 18.6603 16.4446 18.7605C16.4422 18.8608 16.4197 18.9595 16.3784 19.0509C16.3372 19.1422 16.2781 19.2244 16.2045 19.2925C16.131 19.3607 16.0445 19.4134 15.9502 19.4475C15.4489 19.645 15.0186 19.9889 14.7154 20.4343C14.4121 20.8798 14.25 21.4061 14.25 21.945V23.25C14.25 23.4489 14.329 23.6397 14.4697 23.7803C14.6103 23.921 14.8011 24 15 24H21C21.1989 24 21.3897 23.921 21.5303 23.7803C21.671 23.6397 21.75 23.4489 21.75 23.25V22.0147C21.7501 21.4586 21.5811 20.9156 21.2656 20.4576C20.95 19.9997 20.5027 19.6484 19.983 19.4505C19.8882 19.4176 19.8009 19.366 19.7264 19.2987C19.6518 19.2314 19.5916 19.1499 19.5491 19.0589C19.5067 18.9679 19.483 18.8693 19.4794 18.769C19.4757 18.6687 19.4923 18.5686 19.5281 18.4748C19.5638 18.381 19.618 18.2953 19.6875 18.2229C19.757 18.1504 19.8403 18.0926 19.9326 18.053C20.0248 18.0133 20.124 17.9926 20.2244 17.992C20.3248 17.9914 20.4243 18.0109 20.517 18.0495C21.3207 18.3556 22.0124 18.8987 22.5005 19.6069C22.9886 20.315 23.2499 21.1547 23.25 22.0147V23.25C23.25 23.8467 23.0129 24.419 22.591 24.841C22.169 25.2629 21.5967 25.5 21 25.5H15C14.4033 25.5 13.831 25.2629 13.409 24.841C12.9871 24.419 12.75 23.8467 12.75 23.25V21.945C12.7501 21.1051 13.003 20.2847 13.4757 19.5905C13.9484 18.8963 14.6191 18.3604 15.4005 18.0525V18.0525ZM18 10.5C18.7956 10.5 19.5587 10.8161 20.1213 11.3787C20.6839 11.9413 21 12.7044 21 13.5V15C21 15.7956 20.6839 16.5587 20.1213 17.1213C19.5587 17.6839 18.7956 18 18 18C17.2044 18 16.4413 17.6839 15.8787 17.1213C15.3161 16.5587 15 15.7956 15 15V13.5C15 12.7044 15.3161 11.9413 15.8787 11.3787C16.4413 10.8161 17.2044 10.5 18 10.5V10.5ZM18 12C17.6022 12 17.2206 12.158 16.9393 12.4393C16.658 12.7206 16.5 13.1022 16.5 13.5V15C16.5 15.3978 16.658 15.7794 16.9393 16.0607C17.2206 16.342 17.6022 16.5 18 16.5C18.3978 16.5 18.7794 16.342 19.0607 16.0607C19.342 15.7794 19.5 15.3978 19.5 15V13.5C19.5 13.1022 19.342 12.7206 19.0607 12.4393C18.7794 12.158 18.3978 12 18 12Z" fill="#C1C7CD"/>
</svg>
